<svg xmlns="http://www.w3.org/2000/svg" width="84" height="87" fill="none"><path fill="#2E2E2E" d="m6.82 22.797.577.324-1.42 2.572 4.738 2.658-.388.704-5.315-2.982 1.808-3.276ZM14.137 21.701l-1.834-1.44a.94.94 0 0 0-.432-.2.704.704 0 0 0-.438.06c-.144.068-.28.184-.408.35-.12.155-.198.311-.236.47a.907.907 0 0 0-.002.434.582.582 0 0 0 .202.313l-.473.613a1.03 1.03 0 0 1-.302-.397 1.426 1.426 0 0 1-.119-.55c-.006-.208.03-.422.105-.642.075-.225.196-.446.363-.662.201-.261.422-.456.664-.586a1.29 1.29 0 0 1 .761-.157c.265.023.53.138.795.347l1.66 1.303c.118.093.252.182.4.267.152.083.292.142.42.175l.053.042-.494.639a1.438 1.438 0 0 1-.336-.147 2.874 2.874 0 0 1-.35-.232Zm-1.469-1.323.433.33-.478.619c-.135.174-.241.34-.318.5a1.36 1.36 0 0 0-.145.44.703.703 0 0 0 .274.672.793.793 0 0 0 .365.165.692.692 0 0 0 .397-.055c.133-.063.257-.17.373-.32.145-.187.234-.384.266-.59a1.321 1.321 0 0 0-.026-.568.8.8 0 0 0-.225-.4l.495-.031c.08.087.15.21.209.366a1.883 1.883 0 0 1 .051 1.131 1.672 1.672 0 0 1-.305.6c-.188.244-.4.42-.636.529-.234.107-.47.15-.706.127a1.267 1.267 0 0 1-.652-.273c-.19-.15-.33-.319-.416-.508a1.251 1.251 0 0 1-.115-.611c.01-.22.067-.448.17-.686.104-.238.25-.48.439-.725l.55-.712ZM14.385 17.073 18.088 21l-.562.539-4.3-4.562.513-.493.646.588Zm3.133-1.125.06.064c.226.24.408.49.544.748.136.257.22.513.252.768.035.252.013.495-.066.73-.078.233-.22.448-.423.643-.207.198-.423.34-.647.423a1.485 1.485 0 0 1-.69.086 2.094 2.094 0 0 1-.713-.22 3.762 3.762 0 0 1-.722-.497l-.321-.34a3.96 3.96 0 0 1-.482-.786 2.264 2.264 0 0 1-.202-.745 1.51 1.51 0 0 1 .106-.699c.089-.224.236-.434.441-.63.206-.198.426-.332.662-.403.234-.073.475-.088.723-.044.249.044.498.143.748.298.25.151.493.353.73.604Zm-.502.603-.06-.064a2.716 2.716 0 0 0-.488-.414 1.595 1.595 0 0 0-.522-.23 1.045 1.045 0 0 0-.518-.001 1.066 1.066 0 0 0-.488.282 1.212 1.212 0 0 0-.3.426 1.116 1.116 0 0 0-.076.45c.004.15.032.3.085.45.054.147.122.286.205.42l.744.788a2.4 2.4 0 0 0 .548.24c.19.054.38.062.574.023.192-.04.38-.148.563-.324.15-.145.251-.301.3-.468.05-.171.058-.347.023-.526-.033-.18-.1-.36-.202-.537a2.793 2.793 0 0 0-.388-.515ZM22.22 14.302l-1.33-1.915a.94.94 0 0 0-.353-.32.705.705 0 0 0-.437-.07 1.148 1.148 0 0 0-.493.214c-.16.113-.28.24-.363.38a.906.906 0 0 0-.13.414.582.582 0 0 0 .101.359l-.633.446a1.03 1.03 0 0 1-.171-.467 1.424 1.424 0 0 1 .048-.562c.055-.2.151-.394.288-.583a2.25 2.25 0 0 1 .542-.525c.27-.19.538-.312.807-.365.271-.054.53-.03.774.074.246.1.465.288.658.565l1.203 1.733a3.3 3.3 0 0 0 .305.374c.12.123.236.22.35.29l.038.056-.66.465a1.433 1.433 0 0 1-.278-.239 2.863 2.863 0 0 1-.266-.324Zm-1.015-1.697.317.442-.64.451c-.18.128-.33.256-.45.386a1.358 1.358 0 0 0-.268.378.703.703 0 0 0 .064.723.793.793 0 0 0 .3.264c.12.06.252.08.397.064.145-.02.295-.086.45-.195a1.28 1.28 0 0 0 .427-.486c.091-.187.139-.37.143-.55a.799.799 0 0 0-.098-.45l.483.116c.05.107.081.245.092.411a1.884 1.884 0 0 1-.284 1.097 1.669 1.669 0 0 1-.469.484c-.25.177-.505.283-.762.318a1.366 1.366 0 0 1-.712-.087 1.267 1.267 0 0 1-.543-.451 1.386 1.386 0 0 1-.25-.608 1.25 1.25 0 0 1 .071-.619c.075-.206.196-.407.364-.605.17-.197.38-.386.633-.564l.735-.519ZM26.357 9.915l.277.564-2.142 1.07-.277-.564 2.142-1.07Zm-2.86-.765 1.995 4.065-.693.345-1.996-4.064.693-.346Zm2.557-1.277 1.996 4.065-.697.348-1.996-4.065.697-.348ZM30.207 6.323l1.387 4.311-.74.242-1.387-4.31.74-.243Zm1.444-.472.192.598-3.6 1.177-.192-.597 3.6-1.178ZM34.896 8.484l1.506-3.61.767-.132.757 4.464-.767.132-.552-3.255-1.506 3.61-.76.131-.756-4.465.759-.13.552 3.255ZM40.697 6.84l.837-.016-1.269 2.184-.837.016 1.269-2.184Zm.603-2.381 1.891-.037.087 4.528-.774.015-.075-3.9-1.117.021c-.22.005-.4.046-.538.124a.706.706 0 0 0-.3.29.749.749 0 0 0 .006.72c.06.11.154.201.281.271.127.07.29.103.488.1l1.418-.028.012.636-1.418.027a2.1 2.1 0 0 1-.693-.09 1.514 1.514 0 0 1-.516-.28 1.26 1.26 0 0 1-.326-.433 1.394 1.394 0 0 1-.12-.55 1.32 1.32 0 0 1 .103-.55c.075-.17.184-.318.326-.446.146-.129.324-.228.535-.3.213-.073.457-.113.73-.118ZM49.378 5.063l-.892 4.44-.76-.156.893-4.44.759.156Zm2.911.595-2.615 2.114-1.062-.217.02-.688.868.177 1.867-1.575.922.189ZM50.581 9.93l-1.228-2.344.599-.45 1.593 2.99-.964-.196ZM55.39 10.638l.78-2.197a.948.948 0 0 0 .054-.474.717.717 0 0 0-.196-.4 1.156 1.156 0 0 0-.46-.282 1.233 1.233 0 0 0-.517-.08.89.89 0 0 0-.411.132.575.575 0 0 0-.232.29l-.728-.263a1.02 1.02 0 0 1 .279-.411c.132-.121.293-.216.483-.284.193-.07.406-.102.639-.098.236.002.482.05.74.142.31.112.564.263.762.454.202.191.332.417.39.679.062.26.036.548-.077.866L56.19 10.7c-.05.142-.093.297-.126.466-.03.17-.042.322-.033.456l-.022.063-.76-.275a1.45 1.45 0 0 1 .032-.366c.03-.15.066-.285.109-.406Zm.786-1.812-.174.516-.736-.266a2.886 2.886 0 0 0-.574-.15 1.343 1.343 0 0 0-.461-.001.697.697 0 0 0-.549.47.8.8 0 0 0-.04.398c.022.133.08.254.178.363.101.107.24.194.42.258a1.298 1.298 0 0 0 1.17-.13c.15-.1.252-.212.306-.338l.186.463a1.12 1.12 0 0 1-.28.313 1.848 1.848 0 0 1-1.052.399 1.658 1.658 0 0 1-.664-.107 1.737 1.737 0 0 1-.7-.444 1.391 1.391 0 0 1-.342-.635c-.05-.235-.033-.47.051-.707.081-.229.197-.414.348-.555.152-.144.333-.243.542-.298.21-.058.443-.074.701-.05.258.025.532.09.824.195l.846.306ZM62.556 9.936l-2.115 4.005-.682-.367 2.115-4.004.682.366Zm-1.203 1.715-.298.563a6.79 6.79 0 0 1-.494-.086 4.34 4.34 0 0 1-.497-.143c-.167-.06-.341-.14-.523-.238a2.182 2.182 0 0 1-.733-.602 1.366 1.366 0 0 1-.27-.787c-.007-.292.08-.608.26-.948l.617-1.17.682.367-.618 1.169c-.117.222-.179.42-.186.594a.748.748 0 0 0 .13.463c.093.133.233.249.417.348.177.095.349.173.515.234a5.345 5.345 0 0 0 .997.236ZM63.332 16.02a2.236 2.236 0 0 1-.597-.638 1.967 1.967 0 0 1-.26-.76 2.051 2.051 0 0 1 .072-.81c.08-.275.212-.54.4-.798l.103-.142c.216-.298.453-.53.71-.699.257-.17.52-.28.79-.332.268-.051.528-.048.78.01.25.057.478.161.683.312.26.192.451.403.574.633.125.231.19.473.192.725.005.25-.043.505-.144.767-.099.26-.242.519-.429.776l-.204.28-2.72-2.009.372-.511 2.097 1.55.034-.048c.11-.169.19-.352.244-.548.055-.195.057-.388.006-.579-.051-.19-.183-.364-.397-.521a1.05 1.05 0 0 0-.955-.16c-.17.054-.34.149-.51.283-.171.135-.337.312-.497.534l-.104.142a2.056 2.056 0 0 0-.286.543c-.06.188-.087.373-.078.556.01.185.058.359.143.522a1.3 1.3 0 0 0 .386.436c.22.163.44.255.657.278.219.023.44 0 .664-.066l.158.58a2.145 2.145 0 0 1-.548.12c-.2.019-.413-.003-.64-.067a2.148 2.148 0 0 1-.696-.358ZM67.552 18.805c.13.13.278.222.442.277.164.056.327.072.49.049a.855.855 0 0 0 .44-.207l.524.517a1.37 1.37 0 0 1-.715.347c-.277.048-.56.03-.85-.056a1.873 1.873 0 0 1-.774-.47 2.077 2.077 0 0 1-.51-.756 1.788 1.788 0 0 1-.103-.795c.029-.266.108-.525.237-.778.132-.253.305-.489.517-.707l.122-.126c.212-.218.44-.396.687-.534a2.18 2.18 0 0 1 .77-.258c.264-.032.528-.003.79.087.264.092.518.258.76.497.252.249.422.518.51.808.09.289.102.575.036.859a1.705 1.705 0 0 1-.404.777l-.525-.517c.12-.144.2-.303.24-.476.041-.17.037-.343-.012-.517a1.035 1.035 0 0 0-.288-.478 1.16 1.16 0 0 0-.525-.318 1.037 1.037 0 0 0-.534.003 1.744 1.744 0 0 0-.507.234c-.16.109-.309.234-.447.377l-.122.126c-.138.142-.26.296-.367.461a1.691 1.691 0 0 0-.224.514c-.041.179-.038.358.009.538.051.18.162.354.333.522ZM74.22 20.395l-3.572 2.784-.474-.618 3.572-2.783.474.617Zm.924 1.206-.495.386-2.305-3.006.495-.386 2.305 3.006ZM75.048 26.294 74.32 25l.534-.314.594 1.058c.118.209.236.371.355.486.12.118.242.189.364.212a.52.52 0 0 0 .365-.068.556.556 0 0 0 .29-.484 1.018 1.018 0 0 0-.063-.36 2.353 2.353 0 0 0-.195-.433l-.486-.864-3.387 1.933-.38-.675 3.933-2.245.865 1.54c.14.25.245.488.314.713.07.226.1.436.089.628a1.047 1.047 0 0 1-.15.52 1.127 1.127 0 0 1-.416.387.926.926 0 0 1-.784.066 1.326 1.326 0 0 1-.4-.234c-.129-.11-.251-.25-.367-.422l-.347-.149Zm-1.73.988-.865-1.54.734.024.676 1.205c.105.187.216.33.331.427.118.097.238.15.36.162a.621.621 0 0 0 .373-.088.61.61 0 0 0 .263-.276.644.644 0 0 0 .047-.393 1.483 1.483 0 0 0-.19-.509l-.575-1.025.542-.3.72 1.281-.067.36c.105.227.155.441.15.643a1.074 1.074 0 0 1-.15.538 1.017 1.017 0 0 1-.377.37 1.234 1.234 0 0 1-.547.172 1.057 1.057 0 0 1-.52-.098 1.663 1.663 0 0 1-.48-.357 3.043 3.043 0 0 1-.425-.596ZM76.604 32.682l2.177-.833a.947.947 0 0 0 .395-.267c.1-.114.16-.25.178-.409.017-.159-.01-.336-.085-.532a1.233 1.233 0 0 0-.275-.446.889.889 0 0 0-.367-.227.574.574 0 0 0-.371.012l-.273-.725a1.02 1.02 0 0 1 .494-.054c.178.021.355.082.53.183.178.102.341.242.49.422.15.18.275.4.371.655.116.308.166.6.15.875a1.314 1.314 0 0 1-.263.737c-.157.215-.394.383-.71.504l-1.97.754c-.14.054-.285.123-.436.207-.149.087-.271.177-.367.27l-.063.025-.284-.756c.07-.069.17-.14.3-.214.132-.074.259-.135.379-.18Zm1.888-.579-.505.203-.276-.733a2.883 2.883 0 0 0-.259-.533 1.341 1.341 0 0 0-.298-.352.697.697 0 0 0-.713-.113.801.801 0 0 0-.33.23.706.706 0 0 0-.16.37c-.016.147.01.31.076.487a1.297 1.297 0 0 0 .858.806c.174.05.326.054.457.013l-.232.442c-.116.024-.256.02-.42-.01a1.847 1.847 0 0 1-.986-.54 1.659 1.659 0 0 1-.35-.575 1.738 1.738 0 0 1-.116-.82 1.39 1.39 0 0 1 .26-.673c.146-.19.337-.33.571-.42.227-.087.443-.119.648-.096.208.022.401.095.579.218.18.122.344.29.493.501.148.213.277.463.386.753l.317.842ZM77.157 64.474l-.576-.324L78 61.578l-4.738-2.658.388-.704 5.315 2.982-1.809 3.276ZM69.841 65.57l1.834 1.44a.94.94 0 0 0 .431.2.704.704 0 0 0 .439-.06c.144-.068.28-.185.407-.35.12-.155.198-.311.236-.47a.907.907 0 0 0 .003-.434.581.581 0 0 0-.203-.313l.474-.613c.127.1.228.232.301.397.075.164.114.348.12.55.005.207-.03.421-.105.642a2.253 2.253 0 0 1-.363.662c-.201.26-.423.456-.664.586a1.29 1.29 0 0 1-.762.157c-.264-.023-.529-.139-.794-.347l-1.66-1.303a3.302 3.302 0 0 0-.4-.267 1.873 1.873 0 0 0-.42-.176l-.053-.041.493-.64c.094.025.207.074.337.148.132.075.248.152.35.232Zm1.469 1.323-.433-.33.478-.619c.135-.174.24-.341.318-.5.08-.158.128-.305.144-.44a.704.704 0 0 0-.274-.673.793.793 0 0 0-.364-.164.692.692 0 0 0-.397.055 1.045 1.045 0 0 0-.374.319 1.28 1.28 0 0 0-.265.59c-.032.205-.023.395.026.569.048.175.123.309.225.4l-.495.031c-.08-.088-.15-.21-.209-.366a1.88 1.88 0 0 1-.051-1.131 1.67 1.67 0 0 1 .305-.601c.188-.243.4-.42.636-.528.234-.107.47-.15.706-.127.237.026.454.117.651.272.191.15.33.32.417.509.089.19.127.394.115.611-.01.219-.068.447-.17.686-.104.238-.25.48-.44.725l-.55.712ZM69.593 70.198l-3.704-3.928.563-.539 4.3 4.562-.514.492-.645-.587Zm-3.133 1.124-.06-.064a3.434 3.434 0 0 1-.545-.748 2.274 2.274 0 0 1-.251-.767 1.579 1.579 0 0 1 .065-.73c.079-.233.22-.448.424-.643.207-.199.423-.34.647-.423.224-.084.454-.112.69-.087.234.026.472.1.713.22.239.124.48.29.722.498l.321.34c.206.267.366.53.481.786.116.256.183.505.203.745.019.244-.017.477-.107.699a1.789 1.789 0 0 1-.44.63 1.646 1.646 0 0 1-.662.403 1.506 1.506 0 0 1-.724.044 2.117 2.117 0 0 1-.747-.298 3.513 3.513 0 0 1-.73-.605Zm.502-.602.06.064c.155.164.317.302.487.413.173.114.347.19.522.23.176.045.35.045.52.002.171-.041.334-.135.487-.282.141-.135.241-.277.3-.426.057-.147.082-.297.076-.45a1.458 1.458 0 0 0-.086-.451 2.228 2.228 0 0 0-.204-.418l-.744-.79a2.4 2.4 0 0 0-.548-.24 1.2 1.2 0 0 0-.574-.023c-.192.041-.38.15-.563.325-.151.145-.251.3-.3.468-.05.171-.058.346-.023.525.033.182.1.36.202.538.103.179.233.35.388.515ZM61.758 72.969l1.33 1.915a.94.94 0 0 0 .353.319c.133.07.279.093.437.071.157-.023.322-.094.493-.215.16-.112.28-.239.363-.379a.906.906 0 0 0 .13-.414.581.581 0 0 0-.101-.36l.632-.446c.093.133.15.29.172.468.022.18.006.366-.048.562-.055.2-.151.393-.289.582a2.252 2.252 0 0 1-.541.526c-.27.19-.538.311-.807.365a1.29 1.29 0 0 1-.775-.074c-.245-.1-.465-.288-.657-.566l-1.203-1.732a3.299 3.299 0 0 0-.305-.374 1.87 1.87 0 0 0-.35-.291l-.038-.055.66-.466c.083.051.175.13.278.24.104.11.193.219.266.324Zm1.015 1.697-.318-.443.64-.45c.18-.128.33-.256.451-.386.122-.127.212-.253.267-.378a.703.703 0 0 0-.064-.723.793.793 0 0 0-.3-.264.692.692 0 0 0-.396-.064c-.145.02-.295.085-.45.195a1.28 1.28 0 0 0-.428.485c-.09.188-.138.371-.142.552a.799.799 0 0 0 .098.448l-.483-.115a1.132 1.132 0 0 1-.092-.412 1.88 1.88 0 0 1 .284-1.096c.111-.181.268-.343.468-.484.251-.177.505-.283.763-.318.255-.034.493-.005.712.086.219.095.4.246.543.452.138.2.221.402.249.608.029.209.005.415-.07.618a1.965 1.965 0 0 1-.365.606 3.41 3.41 0 0 1-.632.564l-.735.518ZM57.62 77.355l-.276-.563 2.142-1.07.277.564-2.142 1.07Zm2.862.766-1.996-4.065.693-.346 1.995 4.065-.692.346Zm-2.558 1.277-1.996-4.065.697-.348 1.996 4.065-.697.348ZM53.77 80.947l-1.387-4.31.74-.242 1.388 4.31-.74.242Zm-1.443.473-.192-.598 3.6-1.178.192.598-3.6 1.178ZM49.082 78.787l-1.506 3.61-.767.132-.757-4.465.767-.132.552 3.256 1.506-3.61.759-.131.757 4.464-.759.131-.552-3.255ZM43.281 80.431l-.837.016 1.269-2.184.837-.017-1.269 2.185Zm-.603 2.381-1.892.037-.086-4.528.774-.015.075 3.9 1.117-.022c.22-.004.4-.045.537-.123a.707.707 0 0 0 .3-.29.75.75 0 0 0-.005-.72.691.691 0 0 0-.281-.271.961.961 0 0 0-.488-.1l-1.418.028-.013-.636 1.419-.028a2.1 2.1 0 0 1 .692.091c.203.066.375.16.516.28.142.122.251.266.327.432.076.17.115.353.12.55a1.32 1.32 0 0 1-.103.551 1.31 1.31 0 0 1-.327.446 1.539 1.539 0 0 1-.534.3 2.366 2.366 0 0 1-.73.118ZM34.6 82.208l.892-4.44.759.155-.892 4.44-.76-.155Zm-2.912-.595 2.615-2.114 1.063.217-.02.688-.869-.177-1.866 1.575-.922-.189Zm1.709-4.273 1.228 2.344-.599.45-1.593-2.99.964.196ZM28.588 76.633l-.78 2.196a.948.948 0 0 0-.054.475c.021.15.086.283.196.4.11.117.262.21.46.282.183.066.356.093.517.08a.89.89 0 0 0 .411-.132.575.575 0 0 0 .232-.29l.728.263a1.02 1.02 0 0 1-.279.41 1.397 1.397 0 0 1-.483.285c-.193.07-.406.102-.639.098a2.238 2.238 0 0 1-.74-.142 2.133 2.133 0 0 1-.763-.454 1.314 1.314 0 0 1-.389-.679c-.062-.26-.036-.548.077-.867l.706-1.987a3.32 3.32 0 0 0 .126-.466c.03-.17.041-.322.033-.456l.022-.063.76.274c.007.098-.004.22-.033.367-.029.15-.065.285-.108.406Zm-.786 1.812.174-.516.736.266c.208.075.399.125.573.15.174.026.328.027.462.001a.697.697 0 0 0 .549-.47.8.8 0 0 0 .04-.399.705.705 0 0 0-.178-.362c-.101-.108-.241-.194-.42-.258a1.296 1.296 0 0 0-1.17.13.79.79 0 0 0-.306.338l-.186-.463a1.12 1.12 0 0 1 .28-.313 1.848 1.848 0 0 1 1.052-.399 1.66 1.66 0 0 1 .664.106c.288.105.521.253.7.444.174.191.289.403.342.636.05.234.033.47-.051.707a1.375 1.375 0 0 1-.348.555 1.227 1.227 0 0 1-.542.298c-.21.058-.444.074-.701.05a3.393 3.393 0 0 1-.824-.196l-.846-.305ZM21.422 77.334l2.114-4.004.683.366-2.115 4.005-.682-.367Zm1.203-1.714.297-.563c.165.022.33.05.495.085.161.036.327.084.497.144.167.06.341.14.523.238.314.168.559.37.732.602.173.235.263.497.271.787.007.291-.08.608-.26.948l-.617 1.17-.682-.367.617-1.17c.118-.221.18-.42.186-.593a.749.749 0 0 0-.129-.464 1.184 1.184 0 0 0-.417-.347 4.007 4.007 0 0 0-.516-.234 4.567 4.567 0 0 0-.5-.145 5.344 5.344 0 0 0-.497-.091ZM20.646 71.25c.254.188.452.4.596.639.14.239.227.492.26.76a2.05 2.05 0 0 1-.071.81c-.08.275-.212.54-.4.798l-.103.142c-.216.298-.453.53-.71.699-.258.17-.52.28-.79.332a1.879 1.879 0 0 1-.78-.01 1.818 1.818 0 0 1-.683-.312 1.941 1.941 0 0 1-.574-.633 1.543 1.543 0 0 1-.193-.725c-.004-.25.044-.505.145-.767.099-.26.242-.519.429-.776l.204-.28 2.72 2.009-.372.511-2.097-1.55-.034.048c-.11.169-.19.352-.244.548a1.065 1.065 0 0 0-.006.579c.051.19.183.364.396.522a1.05 1.05 0 0 0 .956.159c.17-.054.34-.149.51-.283.17-.135.336-.312.497-.534l.104-.142c.126-.173.221-.355.286-.543.06-.188.087-.373.078-.556a1.277 1.277 0 0 0-.143-.522 1.299 1.299 0 0 0-.386-.436 1.342 1.342 0 0 0-.657-.278c-.219-.023-.44 0-.664.066l-.158-.58c.165-.061.348-.101.548-.12.2-.019.413.003.64.067.224.061.456.18.696.358ZM16.426 68.466a1.155 1.155 0 0 0-.442-.278 1.04 1.04 0 0 0-.49-.048.855.855 0 0 0-.44.207l-.524-.517a1.37 1.37 0 0 1 .715-.347c.277-.049.56-.03.85.056.287.088.546.245.774.47.242.24.412.491.51.755.095.263.129.528.102.796a2.23 2.23 0 0 1-.236.778 3.047 3.047 0 0 1-.517.707l-.122.126c-.212.218-.441.396-.687.533-.25.138-.507.224-.77.258a1.747 1.747 0 0 1-.79-.086 2.059 2.059 0 0 1-.76-.497 1.916 1.916 0 0 1-.51-.809 1.616 1.616 0 0 1-.036-.858c.062-.284.196-.543.404-.777l.524.517c-.12.144-.2.302-.24.475-.04.171-.037.343.013.517.045.174.14.334.288.478.168.167.344.273.525.319.177.045.355.044.533-.003.175-.048.344-.126.508-.234.16-.11.309-.235.447-.377l.122-.126c.138-.142.26-.296.366-.462.107-.165.181-.336.225-.513a1.106 1.106 0 0 0-.01-.538 1.21 1.21 0 0 0-.332-.522ZM9.758 66.875l3.572-2.783.474.617-3.572 2.784-.474-.618Zm-.924-1.205.495-.386 2.305 3.006-.495.385-2.305-3.005ZM8.93 60.976l.727 1.296-.533.314-.595-1.058a2.122 2.122 0 0 0-.355-.487.73.73 0 0 0-.363-.211.52.52 0 0 0-.365.068.555.555 0 0 0-.29.484c-.003.108.017.227.063.36.041.13.106.274.195.432l.486.865 3.387-1.934.38.676-3.934 2.244-.864-1.54a3.633 3.633 0 0 1-.314-.712 1.81 1.81 0 0 1-.09-.629c.008-.193.058-.366.15-.519.094-.153.233-.282.417-.387a.925.925 0 0 1 .784-.066c.135.047.269.126.4.234.129.11.25.25.366.422l.348.148Zm1.73-.987.865 1.54-.734-.025-.676-1.204a1.546 1.546 0 0 0-.331-.428.665.665 0 0 0-.36-.16.62.62 0 0 0-.373.087.608.608 0 0 0-.263.275.643.643 0 0 0-.048.394c.022.151.085.321.19.508l.576 1.026-.542.3-.72-1.281.067-.361a1.447 1.447 0 0 1-.15-.642c.005-.202.055-.382.15-.538.091-.156.217-.279.377-.37.184-.105.366-.163.547-.172.178-.013.352.02.52.097.166.08.326.199.48.358.15.161.293.36.425.596ZM7.374 54.588l-2.177.833a.949.949 0 0 0-.396.268c-.1.113-.16.25-.177.408-.017.16.01.337.084.533.07.183.16.331.275.446a.89.89 0 0 0 .368.227c.13.037.253.033.37-.012l.274.724a1.02 1.02 0 0 1-.494.055 1.398 1.398 0 0 1-.53-.183 1.787 1.787 0 0 1-.49-.422 2.238 2.238 0 0 1-.371-.655 2.132 2.132 0 0 1-.15-.875c.014-.277.102-.523.263-.737.157-.216.394-.384.709-.504l1.97-.754a3.32 3.32 0 0 0 .436-.207c.15-.087.272-.177.368-.271l.063-.024.284.756c-.07.069-.17.14-.3.213-.133.075-.259.135-.379.181Zm-1.888.58.505-.203.276.732c.077.207.164.384.259.533.092.15.191.268.298.352.106.085.22.137.34.157.118.02.242.006.373-.044a.799.799 0 0 0 .33-.23.706.706 0 0 0 .16-.37 1.053 1.053 0 0 0-.076-.486 1.296 1.296 0 0 0-.858-.805.789.789 0 0 0-.457-.014l.232-.443c.116-.023.256-.02.42.01a1.844 1.844 0 0 1 .986.541c.146.153.263.345.35.574.108.288.147.561.116.82a1.392 1.392 0 0 1-.26.674 1.28 1.28 0 0 1-.571.42 1.375 1.375 0 0 1-.649.096 1.227 1.227 0 0 1-.578-.218 1.937 1.937 0 0 1-.493-.502 3.395 3.395 0 0 1-.386-.752l-.317-.843Z"/><circle cx="4.5" cy="40.967" r="1.5" fill="#0D7BC0"/><circle cx="79.5" cy="46.008" r="1.5" fill="#0D7BC0"/></svg>