<svg width="14" height="20" viewBox="0 0 14 20" fill="none" xmlns="http://www.w3.org/2000/svg">
<path d="M7 3.25C5.60761 3.25 4.27226 3.80312 3.28769 4.78769C2.30312 5.77225 1.75 7.10761 1.75 8.5C1.75 10.6465 3.0865 12.7172 4.5535 14.3215C5.30401 15.1383 6.12244 15.89 7 16.5685C7.87754 15.8905 8.69597 15.1393 9.4465 14.323C10.9135 12.7172 12.25 10.6472 12.25 8.5C12.25 7.10761 11.6969 5.77225 10.7123 4.78769C9.72774 3.80312 8.39239 3.25 7 3.25ZM7 18.4105L6.57475 18.118L6.5725 18.1165L6.568 18.1127L6.553 18.1022L6.49675 18.0625C6.1862 17.8368 5.88256 17.6016 5.58625 17.3575C4.82678 16.7336 4.11179 16.0575 3.4465 15.334C1.9135 13.657 0.25 11.2277 0.25 8.5C0.25 6.70979 0.961159 4.9929 2.22703 3.72703C3.4929 2.46116 5.20979 1.75 7 1.75C8.79021 1.75 10.5071 2.46116 11.773 3.72703C13.0388 4.9929 13.75 6.70979 13.75 8.5C13.75 11.2277 12.0865 13.6577 10.5535 15.334C9.6849 16.2788 8.73196 17.1423 7.7065 17.914C7.62105 17.9778 7.53479 18.0406 7.44775 18.1022L7.432 18.1127L7.4275 18.1165L7.426 18.1172L7 18.4105ZM7 7C6.60218 7 6.22064 7.15804 5.93934 7.43934C5.65804 7.72064 5.5 8.10217 5.5 8.5C5.5 8.89782 5.65804 9.27935 5.93934 9.56066C6.22064 9.84196 6.60218 10 7 10C7.39782 10 7.77936 9.84196 8.06066 9.56066C8.34196 9.27935 8.5 8.89782 8.5 8.5C8.5 8.10217 8.34196 7.72064 8.06066 7.43934C7.77936 7.15804 7.39782 7 7 7ZM4 8.5C4 7.70435 4.31607 6.94129 4.87868 6.37868C5.44129 5.81607 6.20435 5.5 7 5.5C7.79565 5.5 8.55871 5.81607 9.12132 6.37868C9.68393 6.94129 10 7.70435 10 8.5C10 9.29565 9.68393 10.0587 9.12132 10.6213C8.55871 11.1839 7.79565 11.5 7 11.5C6.20435 11.5 5.44129 11.1839 4.87868 10.6213C4.31607 10.0587 4 9.29565 4 8.5Z" fill="#0D7BC0"/>
</svg>
