<svg width="54" height="54" fill="none" xmlns="http://www.w3.org/2000/svg"><mask id="a" fill="#fff"><path d="M47.782 27.621a1.405 1.405 0 0 1 0-1.242l1.788-3.658a4.162 4.162 0 0 0-1.795-5.526l-3.597-1.908a1.405 1.405 0 0 1-.73-1.005l-.703-4.01a4.162 4.162 0 0 0-4.701-3.416l-4.031.57a1.405 1.405 0 0 1-1.181-.383l-2.926-2.83a4.161 4.161 0 0 0-5.811 0l-2.926 2.83a1.405 1.405 0 0 1-1.181.384l-4.032-.57a4.161 4.161 0 0 0-4.7 3.415l-.704 4.01a1.406 1.406 0 0 1-.73 1.005l-3.596 1.908a4.162 4.162 0 0 0-1.796 5.527l1.788 3.657a1.405 1.405 0 0 1 0 1.242L4.43 31.28a4.162 4.162 0 0 0 1.796 5.526l3.596 1.908a1.404 1.404 0 0 1 .73 1.005l.703 4.01a4.16 4.16 0 0 0 4.701 3.416l4.032-.57a1.406 1.406 0 0 1 1.18.383l2.927 2.83a4.165 4.165 0 0 0 5.81 0l2.927-2.83a1.407 1.407 0 0 1 1.18-.384l4.032.57a4.161 4.161 0 0 0 4.7-3.415l.704-4.01a1.404 1.404 0 0 1 .73-1.005l3.597-1.908a4.162 4.162 0 0 0 1.795-5.526l-1.788-3.658Zm-1.303 6.742-3.597 1.908a4.152 4.152 0 0 0-2.157 2.97l-.703 4.01a1.408 1.408 0 0 1-1.591 1.155l-4.031-.57a4.151 4.151 0 0 0-3.49 1.134l-2.927 2.83a1.408 1.408 0 0 1-1.966 0l-2.926-2.83a4.148 4.148 0 0 0-3.49-1.134l-4.032.57a1.409 1.409 0 0 1-1.59-1.156l-.704-4.01a4.152 4.152 0 0 0-2.157-2.97L7.52 34.363a1.408 1.408 0 0 1-.607-1.87l1.788-3.657a4.152 4.152 0 0 0 0-3.67l-1.788-3.658a1.408 1.408 0 0 1 .607-1.87l3.597-1.908a4.153 4.153 0 0 0 2.157-2.97l.703-4.01a1.408 1.408 0 0 1 1.591-1.155l4.031.57a4.152 4.152 0 0 0 3.49-1.134l2.927-2.83a1.408 1.408 0 0 1 1.966 0l2.926 2.83a4.152 4.152 0 0 0 3.49 1.135l4.032-.57a1.408 1.408 0 0 1 1.59 1.155l.704 4.01a4.152 4.152 0 0 0 2.157 2.97l3.596 1.907a1.408 1.408 0 0 1 .608 1.87l-1.788 3.658a4.152 4.152 0 0 0 0 3.67l1.788 3.658a1.408 1.408 0 0 1-.607 1.87Z"/></mask><path d="M47.782 27.621a1.405 1.405 0 0 1 0-1.242l1.788-3.658a4.162 4.162 0 0 0-1.795-5.526l-3.597-1.908a1.405 1.405 0 0 1-.73-1.005l-.703-4.01a4.162 4.162 0 0 0-4.701-3.416l-4.031.57a1.405 1.405 0 0 1-1.181-.383l-2.926-2.83a4.161 4.161 0 0 0-5.811 0l-2.926 2.83a1.405 1.405 0 0 1-1.181.384l-4.032-.57a4.161 4.161 0 0 0-4.7 3.415l-.704 4.01a1.406 1.406 0 0 1-.73 1.005l-3.596 1.908a4.162 4.162 0 0 0-1.796 5.527l1.788 3.657a1.405 1.405 0 0 1 0 1.242L4.43 31.28a4.162 4.162 0 0 0 1.796 5.526l3.596 1.908a1.404 1.404 0 0 1 .73 1.005l.703 4.01a4.16 4.16 0 0 0 4.701 3.416l4.032-.57a1.406 1.406 0 0 1 1.18.383l2.927 2.83a4.165 4.165 0 0 0 5.81 0l2.927-2.83a1.407 1.407 0 0 1 1.18-.384l4.032.57a4.161 4.161 0 0 0 4.7-3.415l.704-4.01a1.404 1.404 0 0 1 .73-1.005l3.597-1.908a4.162 4.162 0 0 0 1.795-5.526l-1.788-3.658Zm-1.303 6.742-3.597 1.908a4.152 4.152 0 0 0-2.157 2.97l-.703 4.01a1.408 1.408 0 0 1-1.591 1.155l-4.031-.57a4.151 4.151 0 0 0-3.49 1.134l-2.927 2.83a1.408 1.408 0 0 1-1.966 0l-2.926-2.83a4.148 4.148 0 0 0-3.49-1.134l-4.032.57a1.409 1.409 0 0 1-1.59-1.156l-.704-4.01a4.152 4.152 0 0 0-2.157-2.97L7.52 34.363a1.408 1.408 0 0 1-.607-1.87l1.788-3.657a4.152 4.152 0 0 0 0-3.67l-1.788-3.658a1.408 1.408 0 0 1 .607-1.87l3.597-1.908a4.153 4.153 0 0 0 2.157-2.97l.703-4.01a1.408 1.408 0 0 1 1.591-1.155l4.031.57a4.152 4.152 0 0 0 3.49-1.134l2.927-2.83a1.408 1.408 0 0 1 1.966 0l2.926 2.83a4.152 4.152 0 0 0 3.49 1.135l4.032-.57a1.408 1.408 0 0 1 1.59 1.155l.704 4.01a4.152 4.152 0 0 0 2.157 2.97l3.596 1.907a1.408 1.408 0 0 1 .608 1.87l-1.788 3.658a4.152 4.152 0 0 0 0 3.67l1.788 3.658a1.408 1.408 0 0 1-.607 1.87Z" fill="#0D7BC0" stroke="#E3F4FE" stroke-width=".6" mask="url(#a)"/><path d="M17.005 36.996a1.233 1.233 0 0 1 0-1.743l18.247-18.248a1.233 1.233 0 0 1 1.743 0l.107-.106-.107.106a1.232 1.232 0 0 1 0 1.743l.106.106-.106-.106-18.247 18.248c-.241.24-.556.36-.872.36a1.229 1.229 0 0 1-.871-.36Zm6.92-17.37c0-1.352-1.102-2.453-2.455-2.453a2.457 2.457 0 0 0-2.454 2.454c0 1.353 1.1 2.454 2.454 2.454s2.454-1.1 2.454-2.454Zm-7.374.001a4.925 4.925 0 0 1 4.92-4.92 4.925 4.925 0 0 1 4.918 4.92 4.925 4.925 0 0 1-4.919 4.92 4.925 4.925 0 0 1-4.919-4.92Zm11.06 14.746a4.925 4.925 0 0 1 4.919-4.919 4.925 4.925 0 0 1 4.919 4.92 4.925 4.925 0 0 1-4.92 4.918 4.925 4.925 0 0 1-4.918-4.919Zm2.465 0c0 1.354 1.1 2.455 2.454 2.455 1.353 0 2.454-1.101 2.454-2.455 0-1.353-1.1-2.454-2.454-2.454a2.457 2.457 0 0 0-2.454 2.454Z" fill="#0D7BC0" stroke="#E3F4FE" stroke-width=".3"/></svg>