<svg width="54" height="54" fill="none" xmlns="http://www.w3.org/2000/svg"><path d="M16.355 27.91h.2v-3.24H13.316v3.24h3.039Zm10.645 0h.2v-3.24H23.961v3.24h3.04ZM16.355 39.264h.2V36.026H13.316V39.265h3.039Zm-4.258-17.032h5.677a1.22 1.22 0 0 1 1.22 1.22v5.677a1.22 1.22 0 0 1-1.22 1.22h-5.677a1.22 1.22 0 0 1-1.22-1.22v-5.677a1.22 1.22 0 0 1 1.22-1.22Zm17.542 1.22v5.677a1.22 1.22 0 0 1-1.22 1.22h-5.677a1.22 1.22 0 0 1-1.22-1.22v-5.677a1.219 1.219 0 0 1 1.22-1.22h5.677a1.22 1.22 0 0 1 1.22 1.22ZM12.097 33.587h5.677a1.22 1.22 0 0 1 1.22 1.22v5.677a1.22 1.22 0 0 1-1.22 1.22h-5.677a1.22 1.22 0 0 1-1.22-1.22v-5.678a1.22 1.22 0 0 1 1.22-1.219Z" fill="#0D7BC0" stroke="#E3F4FE" stroke-width=".4"/><path d="M45.911 31.142v.098l.067.072a10.342 10.342 0 0 1 2.772 7.043c0 5.732-4.663 10.395-10.395 10.395-1.88 0-3.64-.51-5.163-1.386l-.058-.033H9.967a4.723 4.723 0 0 1-4.717-4.718V12.807a4.723 4.723 0 0 1 4.718-4.718h.71a1.17 1.17 0 1 1 0 2.338h-.71a2.382 2.382 0 0 0-2.38 2.38v3.798h35.985v-3.799a2.382 2.382 0 0 0-2.38-2.379h-4.508v.96a1.17 1.17 0 0 1-2.338 0v-.96H26.75v.96a1.17 1.17 0 0 1-2.339 0v-.96h-7.597v.96a1.17 1.17 0 0 1-2.338 0V6.42a1.17 1.17 0 1 1 2.338 0v1.67h7.597v-1.67a1.17 1.17 0 1 1 2.339 0v1.67h7.597v-1.67a1.17 1.17 0 1 1 2.338 0v1.67h4.508a4.723 4.723 0 0 1 4.718 4.717v18.336ZM7.84 18.944h-.25v23.669a2.382 2.382 0 0 0 2.379 2.379H30.36l-.302-.4a10.321 10.321 0 0 1-2.1-6.237c0-5.732 4.664-10.395 10.396-10.395 1.691 0 3.357.414 4.85 1.208l.368.195V18.944H7.839Zm22.46 19.41c0 4.443 3.614 8.057 8.056 8.057 4.442 0 8.056-3.614 8.056-8.056 0-4.442-3.614-8.057-8.056-8.057-4.442 0-8.057 3.615-8.057 8.057Z" fill="#0D7BC0" stroke="#E3F4FE" stroke-width=".5"/><path d="m41.077 36.109.003-.003a1.17 1.17 0 1 1 1.653 1.653l-.003.003-4.258 4.258a1.163 1.163 0 0 1-.827.343c-.3 0-.599-.114-.826-.342l-2.84-2.84-.002-.002a1.17 1.17 0 1 1 1.653-1.654l.003.003 1.835 1.835.177.176.177-.176 3.255-3.254Z" fill="#0D7BC0" stroke="#E3F4FE" stroke-width=".5"/></svg>