<svg width="54" height="54" fill="none" xmlns="http://www.w3.org/2000/svg"><path d="M27 51H4.286C3.576 51 3 50.425 3 49.714V28.286C3 27.576 3.576 27 4.286 27H27m0 24V27m0 24h22.714c.71 0 1.286-.575 1.286-1.285v-21.43c0-.71-.576-1.285-1.286-1.285H27M12.39 45.858H8.325m33.285 0h4.067M39 21.537V27H15V4.28c0-.707.573-1.28 1.28-1.28h21.434C38.425 3 39 3.576 39 4.286v8.343m-14.61 9.229h-4.066" stroke="#0D7BC0" stroke-width="2.109" stroke-miterlimit="10" stroke-linecap="round" stroke-linejoin="round"/><path d="M29.689 3.486v4.8c0 .319-.22.576-.492.576h-4.393c-.272 0-.492-.257-.492-.575V3.486m-6.623 23.838v4.8c0 .319-.22.577-.492.577h-4.393c-.272 0-.492-.258-.492-.576v-4.801m29.377 0v4.8c0 .319-.22.577-.492.577h-4.393c-.272 0-.492-.258-.492-.576v-4.801" stroke="#0D7BC0" stroke-width="2.109" stroke-miterlimit="10" stroke-linecap="round" stroke-linejoin="round"/></svg>