<svg width="54" height="54" fill="none" xmlns="http://www.w3.org/2000/svg"><path d="M13.167 14.684a.948.948 0 1 0 .001 1.896.948.948 0 0 0 0-1.896Z" fill="#0D7BC0"/><path d="m47.362 22.787-1.37-2.742a2.827 2.827 0 0 0-2.543-1.571h-7.924v-6.632A2.845 2.845 0 0 0 32.683 9H5.588a2.845 2.845 0 0 0-2.842 2.842v24.632a2.845 2.845 0 0 0 2.842 2.842H8.43c0 1.454.55 2.783 1.452 3.79H3.694a.947.947 0 0 0 0 1.894h46.61a.947.947 0 1 0 0-1.895h-2.4a5.66 5.66 0 0 0 1.453-3.79c0-.053-.003-.107-.004-.16a2.847 2.847 0 0 0 1.898-2.681v-5.237c0-1.106.22-.074-3.889-8.45Zm-1.433 1.37 2.842 5.685h-9.456v-5.684h6.614Zm-41.288 7.58h1.895v1.895H4.64v-1.895Zm9.473 11.368a3.794 3.794 0 0 1-3.712-4.548 3.798 3.798 0 0 1 3.713-3.03 3.798 3.798 0 0 1 3.712 3.03l.001.004a3.794 3.794 0 0 1-3.714 4.544Zm0-9.473a5.704 5.704 0 0 0-5.359 3.789H5.588a.948.948 0 0 1-.947-.947v-.948h2.842a.947.947 0 0 0 .947-.947v-3.79a.947.947 0 0 0-.947-.947H4.641v-18c0-.522.425-.947.947-.947h27.095c.522 0 .947.425.947.947v25.58H19.473a5.704 5.704 0 0 0-5.358-3.79Zm4.233 9.473a5.66 5.66 0 0 0 1.452-3.79h18.19c0 1.456.55 2.784 1.451 3.79H18.347Zm25.325 0a3.794 3.794 0 0 1-3.712-4.548 3.798 3.798 0 0 1 3.712-3.03 3.798 3.798 0 0 1 3.713 3.03l.001.004a3.794 3.794 0 0 1-3.714 4.544Zm5.685-6.631a.946.946 0 0 1-.393.766 5.705 5.705 0 0 0-5.291-3.608 5.704 5.704 0 0 0-5.36 3.79h-2.788V20.367h7.924a.943.943 0 0 1 .847.524l.686 1.371h-6.615a.947.947 0 0 0-.947.948v7.579c0 .523.424.947.947.947h10.99v4.737Z" fill="#0D7BC0"/><path d="M28.893 14.684H16.957a.947.947 0 0 0 0 1.895h11.936a.947.947 0 0 0 0-1.895Zm0 3.79h-8.147a.947.947 0 0 0 0 1.895h8.148a.948.948 0 0 0 0-1.895Zm14.78 18.947c-1.045 0-1.895.85-1.895 1.895s.85 1.895 1.894 1.895c1.045 0 1.895-.85 1.895-1.895s-.85-1.895-1.895-1.895Zm-29.559 0c-1.044 0-1.894.85-1.894 1.895s.85 1.895 1.894 1.895c1.045 0 1.895-.85 1.895-1.895s-.85-1.895-1.895-1.895Z" fill="#0D7BC0"/></svg>