<svg width="54" height="54" fill="none" xmlns="http://www.w3.org/2000/svg"><path d="M41.073 41.332a.934.934 0 1 0-1.134 1.484l1.596 1.22a.93.93 0 0 0 1.26-.114l3.052-3.37a.934.934 0 1 0-1.385-1.254l-2.475 2.732-.914-.698Z" fill="#0D7BC0"/><path d="M50.993 36.344a.934.934 0 0 0-.852-.91c-2.223-.194-4.958-1.687-6.969-3.803a.935.935 0 0 0-.677-.29.935.935 0 0 0-.677.29 14.146 14.146 0 0 1-3.03 2.409c-1.898-2.118-4.232-3.678-6.969-4.66a19.076 19.076 0 0 0-.72-.242c2.315-2.308 3.872-5.341 3.872-8.062v-1.468a3.096 3.096 0 0 0 1.86-2.836c0-1.317-.828-2.444-1.992-2.887a11.526 11.526 0 0 0-8.277-9.879 1.404 1.404 0 0 0-1.372-1.113h-3.385c-.65 0-1.197.445-1.355 1.047a11.552 11.552 0 0 0-8.512 9.945 3.094 3.094 0 0 0-1.994 2.887c0 1.269.769 2.36 1.864 2.837v1.467c0 2.718 1.557 5.753 3.871 8.062a19.024 19.024 0 0 0-.747.252c-3.063 1.105-5.62 2.934-7.622 5.46-1.926 2.428-3.295 5.428-4.07 8.916-.275 1.246-.482 2.812.368 3.87.83 1.034 2.315 1.167 3.517 1.167h6.111a.934.934 0 1 0 0-1.869H7.125c-1.118 0-1.811-.157-2.06-.468-.264-.328-.264-1.101 0-2.296.971-4.374 3.345-9.726 9.066-12.429-.176 3.157 1.534 5.22 2.621 6.53a.935.935 0 0 0 1.37.073l5.266-5.121 5.268 5.12a.934.934 0 0 0 1.371-.073c1.086-1.31 2.793-3.375 2.619-6.525 1.66.787 3.126 1.84 4.387 3.152-.753.291-1.493.477-2.184.538a.934.934 0 0 0-.852.909c-.079 3.34.478 5.733 1.984 8.535.013.023.522.936 1.315 2.055h-15.6a.934.934 0 0 0 0 1.869H38.78c1.127 1.245 2.455 2.304 3.715 2.304 3.04 0 6.48-6.166 6.513-6.228 1.504-2.801 2.06-5.194 1.985-8.535ZM32.932 13.683h-5.144c-.972-2.539-1.156-4.632-1.189-7.706a9.66 9.66 0 0 1 6.333 7.706ZM22.272 4.76h2.452c.006 3.617.097 6.066 1.076 8.922h-4.603c.977-2.856 1.069-5.305 1.074-8.922Zm-1.875 1.143c-.031 3.113-.21 5.22-1.188 7.779h-5.363c.533-3.586 3.111-6.64 6.55-7.78Zm-7.36 9.648h6.25c.055.044.108.05.153 0h14.303a1.222 1.222 0 0 1 0 2.443H13.036a1.225 1.225 0 0 1-1.223-1.223c0-.673.549-1.22 1.223-1.22Zm.64 5.524v-1.212h19.425v1.212c0 3.562-3.451 7.968-7.385 9.428-1.722.64-2.944.64-4.67-.002-3.926-1.466-7.37-5.87-7.37-9.426Zm3.877 15.213c-.967-1.262-1.898-2.92-1.45-5.325a18.01 18.01 0 0 1 1.28-.362 12.561 12.561 0 0 0 3.011 1.652c.323.12.652.225.985.316l-3.826 3.72Zm11.67 0-3.828-3.72c.328-.09.652-.194.971-.313a12.554 12.554 0 0 0 3.027-1.654c.43.104.857.225 1.278.36.449 2.403-.482 4.063-1.448 5.327Zm18.137 7.707c-1.105 2.062-3.692 5.242-4.866 5.242-1.174 0-3.761-3.18-4.867-5.243-1.235-2.296-1.742-4.21-1.769-6.817 1.008-.192 2.057-.568 3.09-1.094a15.746 15.746 0 0 0 3.546-2.495c1.99 1.857 4.412 3.166 6.635 3.589-.03 2.607-.536 4.522-1.769 6.818Z" fill="#0D7BC0"/><path d="M17.466 46.934a.934.934 0 0 0 0 1.869h.005a.932.932 0 0 0 .932-.935.937.937 0 0 0-.937-.934Z" fill="#0D7BC0" stroke="#0D7BC0" stroke-width=".4"/></svg>