<svg width="54" height="54" fill="none" xmlns="http://www.w3.org/2000/svg"><path d="M10.648 28.762a.905.905 0 0 0 .636-.262.908.908 0 0 0 .263-.637.905.905 0 0 0-.263-.635.905.905 0 0 0-.636-.263.906.906 0 0 0-.635.263.906.906 0 0 0-.263.635c0 .238.096.47.263.637a.905.905 0 0 0 .635.262Z" fill="#0D7BC0"/><path d="m49.536 16.331-8.21-4.54a.898.898 0 1 0-.87 1.573l7.747 4.283v30.556H44.25v-28.21a.898.898 0 0 0-.898-.9H10.648a.898.898 0 0 0-.898.9v4.277a.898.898 0 1 0 1.797 0v-3.38h30.906v27.313h-3.762V39.22c0-.99-.806-1.797-1.797-1.797h-3.593v-8.984a1.8 1.8 0 0 0-1.797-1.797h-8.985c-.99 0-1.796.806-1.796 1.797v8.984h-3.606c-.99 0-1.797.806-1.797 1.797v8.984h-3.773V31.457a.898.898 0 0 0-1.797 0v16.746H5.797V17.647L27 5.925l7.165 3.962a.899.899 0 0 0 .87-1.573l-7.6-4.202a.897.897 0 0 0-.87 0L4.464 16.332a.899.899 0 0 0-.464.785v31.985c0 .496.402.898.898.898h44.204a.898.898 0 0 0 .898-.898V17.117a.897.897 0 0 0-.464-.786ZM31.504 39.22H33.3v1.797h-1.797v-1.797Zm-3.606-10.781v1.797h-1.796v-1.797h1.796Zm-5.379 0h1.786v2.695c0 .496.402.898.898.898h3.594a.898.898 0 0 0 .898-.898v-2.695h1.809v8.984H22.52v-8.984Zm0 10.78v1.798h-1.796v-1.797h1.796Zm-5.402 8.985V39.22h1.809v2.695c0 .496.402.899.898.899h3.594a.899.899 0 0 0 .898-.899V39.22h1.786v8.984h-8.985Zm10.793 0V39.22h1.797v2.695c0 .496.402.899.898.899H34.2a.899.899 0 0 0 .898-.899V39.22h1.797l.002 8.984H27.91Z" fill="#0D7BC0"/><path d="M37.745 11.737a.906.906 0 0 0 .636-.263.906.906 0 0 0 .263-.635.905.905 0 0 0-.263-.635.906.906 0 0 0-.636-.263.905.905 0 0 0-.635.263.905.905 0 0 0-.263.635c0 .236.096.468.263.635a.905.905 0 0 0 .636.263Zm-14.518 1.427A3.778 3.778 0 0 0 27 16.938a3.778 3.778 0 0 0 3.773-3.774A3.778 3.778 0 0 0 27 9.391a3.778 3.778 0 0 0-3.773 3.773Zm5.75 0c0 1.09-.887 1.977-1.977 1.977a1.979 1.979 0 0 1-1.977-1.977c0-1.09.887-1.976 1.977-1.976s1.977.886 1.977 1.976Z" fill="#0D7BC0"/></svg>