<svg width="54" height="54" fill="none" xmlns="http://www.w3.org/2000/svg"><path d="m2.641 29.766 9.225-23.161a.96.96 0 0 1 1.245-.537h.001l37.42 14.9a.94.94 0 0 1 .384.306.948.948 0 0 1 .512.832v24.935a.96.96 0 0 1-.96.96H10.19a.96.96 0 0 1-.959-.96V33.423l-6.053-2.411a.96.96 0 0 1-.536-1.246Zm8.507 16.316H49.51V23.065H11.15v23.017Zm24.278-24.93-16.058-6.399a7.629 7.629 0 0 1-5.498 2.371l-1.602 4.028h23.158ZM9.23 31.362v-9.256a.959.959 0 0 1 .96-.959h.014l2.033-5.104a.787.787 0 0 1 .078-.12.947.947 0 0 1 1.003-.739 5.735 5.735 0 0 0 5.028-2.165.95.95 0 0 1 1.23-.215c.046.005.09.014.135.025l19.605 7.806a.948.948 0 0 1 .526.512h5.954L13.292 8.205 4.777 29.587l4.453 1.776Z" fill="#0D7BC0"/><path d="M46.907 39.608a5.734 5.734 0 0 0-3.872 3.867.96.96 0 0 1-.919.684.876.876 0 0 1-.148-.022.89.89 0 0 1-.13.027H18.82a.828.828 0 0 1-.117-.024.893.893 0 0 1-1.078-.656l-.002-.006a5.734 5.734 0 0 0-3.871-3.871.946.946 0 0 1-.658-1.055.966.966 0 0 1-.028-.142v-7.672a.868.868 0 0 1 .029-.142.946.946 0 0 1 .658-1.055 5.727 5.727 0 0 0 3.87-3.873.948.948 0 0 1 1.062-.658.905.905 0 0 1 .135-.027h23.017a.904.904 0 0 1 .143.03.947.947 0 0 1 1.055.657 5.734 5.734 0 0 0 3.872 3.87.947.947 0 0 1 .658 1.056.975.975 0 0 1 .026.142v7.672a.886.886 0 0 1-.026.133.95.95 0 0 1-.658 1.065Zm-1.234-8.481a7.61 7.61 0 0 1-4.225-4.226H19.21a7.612 7.612 0 0 1-4.227 4.226v6.893a7.617 7.617 0 0 1 4.226 4.226h22.238a7.617 7.617 0 0 1 4.225-4.226v-6.893Z" fill="#0D7BC0"/><path d="M30.329 40.328a5.754 5.754 0 1 1 0-11.508 5.754 5.754 0 0 1 0 11.508Zm0-9.59a3.836 3.836 0 1 0 0 7.672 3.836 3.836 0 0 0 0-7.672Zm10.55 5.274a1.439 1.439 0 1 1 0-2.877 1.439 1.439 0 0 1 0 2.877Zm0-1.918a.48.48 0 1 0 0 .96.48.48 0 0 0 0-.96Zm-21.1 1.918a1.439 1.439 0 1 1 0-2.877 1.439 1.439 0 0 1 0 2.877Zm0-1.918a.48.48 0 1 0 0 .96.48.48 0 0 0 0-.96Z" fill="#0D7BC0"/></svg>