<svg width="54" height="54" fill="none" xmlns="http://www.w3.org/2000/svg"><path d="m53.86 30.985-2.733-4.195a6.518 6.518 0 0 0-5.487-2.96h-7.069v-4.081c0-2.492-2.02-4.518-4.503-4.518H20.835c-.743-3.89-4.156-6.842-8.248-6.842-4.633 0-8.401 3.782-8.401 8.428 0 2.922 1.491 5.5 3.75 7.012H.857a.858.858 0 0 0-.858.86c0 .476.384.86.857.86H9.43v1.72h-3.43a.855.855 0 0 0-.856.86.861.861 0 0 0 .857.86h3.429v1.719H.857a.855.855 0 0 0-.857.86.862.862 0 0 0 .53.794.854.854 0 0 0 .327.066H9.43v3.808a4.313 4.313 0 0 0-2.572 3.941v.849a.861.861 0 0 0 .857.86h7.603c.487 2.104 2.368 3.678 4.611 3.678 2.245 0 4.125-1.574 4.612-3.678h16.491c.488 2.104 2.368 3.678 4.612 3.678 2.243 0 4.124-1.574 4.612-3.678h2.888a.855.855 0 0 0 .857-.86v-9.57a.862.862 0 0 0-.14-.47ZM5.9 16.817c0-3.699 3-6.708 6.687-6.708 3.688 0 6.688 3.01 6.688 6.708 0 3.699-3 6.709-6.688 6.709-3.687 0-6.687-3.01-6.687-6.709Zm5.243 15.61h1.714a.854.854 0 0 0 .792-.53.86.86 0 0 0-.792-1.19h-1.714v-1.719h6a.856.856 0 0 0 .792-1.188.86.86 0 0 0-.792-.531h-6v-1.72h11.142a.859.859 0 0 0 .858-.86.859.859 0 0 0-.858-.86H17.24a8.43 8.43 0 0 0 3.743-6.878h13.086a2.797 2.797 0 0 1 2.79 2.797v16.119H11.142v-3.44Zm25.714 7.739H24.618a4.738 4.738 0 0 0-1.218-2.58h13.457v2.58Zm-25.703-2.58h5.303a4.739 4.739 0 0 0-1.218 2.58H8.571a2.59 2.59 0 0 1 2.583-2.58Zm8.774 6.259a3.033 3.033 0 0 1-3.024-3.034 3.033 3.033 0 0 1 3.024-3.034 3.033 3.033 0 0 1 3.025 3.034 3.032 3.032 0 0 1-3.025 3.034Zm25.715 0a3.033 3.033 0 0 1-3.024-3.034 3.033 3.033 0 0 1 3.024-3.034 3.033 3.033 0 0 1 3.024 3.034 3.032 3.032 0 0 1-3.024 3.034Zm6.643-3.679h-1.954c-.315-2.316-2.295-4.108-4.69-4.108-2.393 0-4.373 1.792-4.69 4.108h-2.38V25.549h7.068c1.648 0 3.163.816 4.053 2.181l2.593 3.982v8.454Z" fill="#0D7BC0"/><path d="M47.045 40.81c0 .778-.628 1.407-1.402 1.407-.775 0-1.402-.63-1.402-1.406 0-.777.627-1.407 1.402-1.407.774 0 1.402.63 1.402 1.407Zm-25.714 0c0 .778-.628 1.407-1.402 1.407-.774 0-1.402-.63-1.402-1.406 0-.777.627-1.407 1.401-1.407.775 0 1.403.63 1.403 1.407Zm-7.617-23.993v-3.762a.86.86 0 0 0-1.185-.794.858.858 0 0 0-.529.794v3.482l-1.75 2.407a.86.86 0 0 0 1.082 1.273.855.855 0 0 0 .304-.26l1.914-2.634a.862.862 0 0 0 .164-.506Zm31.64 9.592h-1.64a.854.854 0 0 0-.857.86v6.018a.862.862 0 0 0 .857.86h5.77c.537 0 1.018-.279 1.288-.745.27-.466.27-1.024.004-1.488l-2.002-3.515a3.946 3.946 0 0 0-3.42-1.99Zm-.782 6.019v-4.3h.782a2.223 2.223 0 0 1 1.932 1.125l1.808 3.175h-4.522Z" fill="#0D7BC0"/></svg>