<svg width="54" height="54" fill="none" xmlns="http://www.w3.org/2000/svg"><g clip-path="url(#a)"><path d="M52.477 26.884a6.137 6.137 0 0 0-1.286-7.295l-2.928-2.749a4.301 4.301 0 0 1-1.3-2.251l-.916-3.91a6.137 6.137 0 0 0-5.675-4.762l-4.01-.223a4.304 4.304 0 0 1-2.443-.89l-3.215-2.406a6.137 6.137 0 0 0-7.408 0l-3.215 2.406a4.304 4.304 0 0 1-2.443.89l-4.01.223a6.137 6.137 0 0 0-5.675 4.761l-.916 3.91a4.303 4.303 0 0 1-1.3 2.252L2.81 19.59a6.137 6.137 0 0 0-1.287 7.295l1.812 3.584c.418.827.562 1.64.452 2.56l-.477 3.988a6.137 6.137 0 0 0 3.704 6.415l3.692 1.582a4.304 4.304 0 0 1 1.991 1.67l2.199 3.362a6.137 6.137 0 0 0 6.96 2.533l3.845-1.162a4.302 4.302 0 0 1 2.6 0l3.844 1.162c.588.179 1.2.27 1.814.27a6.132 6.132 0 0 0 5.147-2.803l2.198-3.361a4.304 4.304 0 0 1 1.992-1.672l3.692-1.58a6.137 6.137 0 0 0 3.703-6.416l-.476-3.988c-.11-.92.033-1.733.451-2.56l1.812-3.584Zm-3.318 2.823a5.997 5.997 0 0 0-.62 3.522l.476 3.988c.243 2.028-.814 3.859-2.692 4.663l-3.693 1.581a5.999 5.999 0 0 0-2.739 2.299l-2.198 3.361c-1.118 1.71-3.105 2.433-5.06 1.842l-3.845-1.162A6.142 6.142 0 0 0 27 49.528c-.593 0-1.187.091-1.788.273l-3.845 1.162c-1.955.591-3.942-.132-5.06-1.842l-2.198-3.361a5.998 5.998 0 0 0-2.74-2.299l-3.692-1.58c-1.878-.805-2.935-2.636-2.692-4.664l.476-3.988a5.997 5.997 0 0 0-.62-3.522l-1.813-3.585c-.921-1.823-.554-3.904.935-5.303l2.93-2.748a5.997 5.997 0 0 0 1.787-3.098l.916-3.91c.466-1.99 2.085-3.348 4.126-3.461l4.01-.223a5.998 5.998 0 0 0 3.36-1.223l3.215-2.407c1.636-1.225 3.75-1.225 5.385 0l3.216 2.407a5.999 5.999 0 0 0 3.36 1.223l4.01.223c2.04.113 3.66 1.472 4.125 3.461l.917 3.91a5.997 5.997 0 0 0 1.788 3.097l2.928 2.75c1.49 1.397 1.857 3.479.935 5.302l-1.812 3.585ZM27 9.75C17.489 9.75 9.751 17.489 9.751 27S17.489 44.249 27 44.249s17.249-7.738 17.249-17.25c0-9.51-7.738-17.248-17.249-17.248Zm0 32.81c-8.58 0-15.562-6.98-15.562-15.561 0-8.58 6.981-15.562 15.562-15.562 8.58 0 15.562 6.981 15.562 15.562 0 8.58-6.981 15.561-15.562 15.561Zm7.182-23.38h-.013a3.128 3.128 0 0 0-2.226.934l-6.997 7.066-2.89-2.89a3.14 3.14 0 0 0-2.234-.925 3.14 3.14 0 0 0-2.235.926 3.164 3.164 0 0 0 0 4.468l5.133 5.133a3.15 3.15 0 0 0 2.234.924 3.15 3.15 0 0 0 2.235-.924c1.945-1.946 3.909-3.938 5.807-5.864 1.14-1.157 2.283-2.314 3.426-3.468a3.161 3.161 0 0 0-.014-4.46 3.135 3.135 0 0 0-2.226-.92Zm1.041 4.192a2004.473 2004.473 0 0 0-3.428 3.472c-1.897 1.923-3.858 3.913-5.8 5.854a1.474 1.474 0 0 1-2.082 0l-5.132-5.132a1.474 1.474 0 0 1 1.04-2.514c.394 0 .764.153 1.042.432l3.49 3.489a.844.844 0 0 0 .596.247h.002a.844.844 0 0 0 .598-.25l7.593-7.67a1.452 1.452 0 0 1 1.034-.432h.006c.39 0 .758.151 1.036.427.573.57.575 1.502.005 2.077Z" fill="#0D7BC0"/></g><defs><clipPath id="a"><path fill="#fff" d="M0 0h54v54H0z"/></clipPath></defs></svg>