<svg width="24" height="24" fill="none" xmlns="http://www.w3.org/2000/svg"><g clip-path="url(#a)"><path d="m22.27 15.457-5.264-2.36-.02-.008a2.23 2.23 0 0 0-2.124.195c-.044.03-.085.06-.126.094l-2.493 2.124c-1.453-.788-2.955-2.277-3.744-3.712l2.13-2.533c.035-.04.067-.084.096-.128a2.236 2.236 0 0 0 .176-2.125L8.543 1.73A2.242 2.242 0 0 0 6.22.406a6.737 6.737 0 0 0-5.86 6.69c0 9.123 7.422 16.544 16.544 16.544a6.737 6.737 0 0 0 6.69-5.86 2.242 2.242 0 0 0-1.325-2.323Zm-5.366 5.5a13.878 13.878 0 0 1-13.86-13.86 4.056 4.056 0 0 1 3.183-3.973L8.33 7.818 6.19 10.37a1.336 1.336 0 0 0-.096.13 2.236 2.236 0 0 0-.143 2.195c1.053 2.155 3.222 4.31 5.4 5.366a2.235 2.235 0 0 0 2.2-.162c.044-.03.085-.061.125-.095l2.507-2.132 4.695 2.102a4.056 4.056 0 0 1-3.973 3.184Z" fill="#0D7BC0"/></g><defs><clipPath id="a"><path fill="#fff" d="M0 0h24v24H0z"/></clipPath></defs></svg>