<svg width="14" height="20" viewBox="0 0 14 20" fill="none" xmlns="http://www.w3.org/2000/svg">
<g clip-path="url(#clip0_30_2690)">
<path d="M7.00004 3.3335C10.682 3.3335 13.6667 6.31816 13.6667 10.0002C13.6667 13.6822 10.682 16.6668 7.00004 16.6668C3.31804 16.6668 0.333374 13.6822 0.333374 10.0002C0.333374 6.31816 3.31804 3.3335 7.00004 3.3335ZM7.00004 4.66683C5.58555 4.66683 4.229 5.22873 3.2288 6.22893C2.22861 7.22912 1.66671 8.58567 1.66671 10.0002C1.66671 11.4146 2.22861 12.7712 3.2288 13.7714C4.229 14.7716 5.58555 15.3335 7.00004 15.3335C8.41453 15.3335 9.77108 14.7716 10.7713 13.7714C11.7715 12.7712 12.3334 11.4146 12.3334 10.0002C12.3334 8.58567 11.7715 7.22912 10.7713 6.22893C9.77108 5.22873 8.41453 4.66683 7.00004 4.66683ZM7.00004 6.00016C7.16333 6.00018 7.32093 6.06013 7.44296 6.16864C7.56498 6.27715 7.64294 6.42666 7.66204 6.58883L7.66671 6.66683V9.72416L9.47137 11.5288C9.59094 11.6488 9.66036 11.8098 9.66553 11.9791C9.6707 12.1484 9.61123 12.3133 9.49921 12.4403C9.38719 12.5674 9.23101 12.647 9.06239 12.6631C8.89378 12.6792 8.72537 12.6304 8.59137 12.5268L8.52871 12.4715L6.52871 10.4715C6.42509 10.3678 6.35855 10.2328 6.33937 10.0875L6.33337 10.0002V6.66683C6.33337 6.49002 6.40361 6.32045 6.52864 6.19542C6.65366 6.0704 6.82323 6.00016 7.00004 6.00016Z" fill="#0D7BC0"/>
</g>
<defs>
<clipPath id="clip0_30_2690">
<rect width="14" height="20" fill="white"/>
</clipPath>
</defs>
</svg>
