<svg width="24" height="24" viewBox="0 0 24 24" fill="none" xmlns="http://www.w3.org/2000/svg">
<g clip-path="url(#clip0_30_2705)">
<path d="M0.512212 11.8563C0.511649 13.8728 1.04265 15.8417 2.05234 17.5771L0.415649 23.5066L6.53115 21.9156C8.22261 22.8292 10.1178 23.308 12.0436 23.3081H12.0487C18.4064 23.3081 23.5816 18.1748 23.5844 11.8653C23.5856 8.80792 22.3867 5.93295 20.2085 3.76997C18.0307 1.60718 15.1343 0.415458 12.0482 0.414062C5.68984 0.414062 0.514931 5.54709 0.512306 11.8563" fill="url(#paint0_linear_30_2705)"/>
<path d="M9.06358 6.89771C8.8399 6.4044 8.60449 6.39445 8.39177 6.3858C8.21758 6.37836 8.01846 6.37892 7.81952 6.37892C7.6204 6.37892 7.29687 6.45324 7.0234 6.74952C6.74965 7.04608 5.97827 7.76273 5.97827 9.22031C5.97827 10.678 7.04824 12.0866 7.1974 12.2845C7.34674 12.482 9.26299 15.5689 12.2979 16.7564C14.8201 17.7433 15.3334 17.547 15.8808 17.4975C16.4283 17.4482 17.6474 16.7811 17.8961 16.0892C18.1451 15.3975 18.1451 14.8046 18.0704 14.6807C17.9958 14.5572 17.7967 14.4831 17.4981 14.335C17.1994 14.1868 15.7315 13.4701 15.4578 13.3712C15.1841 13.2724 14.985 13.2231 14.7859 13.5198C14.5868 13.8159 14.015 14.4831 13.8407 14.6807C13.6666 14.8787 13.4923 14.9034 13.1938 14.7552C12.8951 14.6065 11.9335 14.2941 10.7926 13.2849C9.90499 12.4996 9.30574 11.5298 9.13155 11.2331C8.95737 10.937 9.1129 10.7764 9.26262 10.6288C9.39677 10.496 9.5613 10.2828 9.71074 10.1099C9.85962 9.93687 9.9093 9.81343 10.0089 9.61585C10.1085 9.41808 10.0586 9.24506 9.98412 9.09687C9.9093 8.94868 9.32908 7.48347 9.06358 6.89771Z" fill="white"/>
</g>
<defs>
<linearGradient id="paint0_linear_30_2705" x1="1158.85" y1="2309.67" x2="1158.85" y2="0.414062" gradientUnits="userSpaceOnUse">
<stop stop-color="#1FAF38"/>
<stop offset="1" stop-color="#60D669"/>
</linearGradient>
<clipPath id="clip0_30_2705">
<rect width="24" height="24" fill="white"/>
</clipPath>
</defs>
</svg>
